<svg width="96" height="86" viewBox="0 0 96 86" fill="none" xmlns="http://www.w3.org/2000/svg">
<path d="M94.9792 33.8L49.4737 0.481781C48.5962 -0.160594 47.404 -0.160594 46.5269 0.481781L1.02105 33.8C-0.090454 34.6139 -0.331954 36.1747 0.481983 37.2862C1.29592 38.3977 2.85686 38.6388 3.96817 37.8252L48.0001 5.58572L92.032 37.825C92.476 38.1503 92.992 38.3069 93.5035 38.3069C94.2715 38.3069 95.0294 37.9535 95.518 37.286C96.3322 36.1747 96.0907 34.6139 94.9792 33.8Z" fill="#072A54"/>
<path d="M82.9213 38.3896C81.544 38.3896 80.427 39.5064 80.427 40.884V80.5869H60.4729V58.9145C60.4729 52.037 54.8775 46.442 48.0004 46.442C41.1233 46.442 35.5279 52.0374 35.5279 58.9145V80.5871H15.5736V40.8841C15.5736 39.5066 14.4566 38.3898 13.0793 38.3898C11.7019 38.3898 10.585 39.5066 10.585 40.8841V83.0816C10.585 84.4591 11.7019 85.5759 13.0793 85.5759H38.0222C39.334 85.5759 40.4074 84.5625 40.5068 83.2758C40.5128 83.2175 40.5165 83.1538 40.5165 83.0816V58.9147C40.5165 54.788 43.8737 51.4308 48.0004 51.4308C52.1271 51.4308 55.4843 54.7882 55.4843 58.9147V83.0816C55.4843 83.1534 55.488 83.216 55.494 83.2736C55.5923 84.5611 56.6661 85.5759 57.9786 85.5759H82.9215C84.2991 85.5759 85.4158 84.4591 85.4158 83.0816V40.8841C85.4156 39.5064 84.2989 38.3896 82.9213 38.3896Z" fill="#072A54"/>
</svg>
