<svg width="96" height="96" viewBox="0 0 96 96" fill="none" xmlns="http://www.w3.org/2000/svg">
<g clip-path="url(#clip0)">
<path d="M94.9792 39.0119L49.4737 5.6937C48.5962 5.05132 47.404 5.05132 46.5269 5.6937L1.02105 39.0119C-0.090454 39.8258 -0.331954 41.3866 0.481983 42.4981C1.29592 43.6096 2.85686 43.8507 3.96817 43.0371L48.0001 10.7976L92.032 43.0369C92.476 43.3623 92.992 43.5188 93.5035 43.5188C94.2715 43.5188 95.0294 43.1654 95.518 42.4979C96.3322 41.3866 96.0907 39.8258 94.9792 39.0119Z" fill="white"/>
<path d="M82.9211 43.6021C81.5437 43.6021 80.4268 44.7188 80.4268 46.0964V85.7993H60.4727V64.1269C60.4727 57.2494 54.8773 51.6544 48.0002 51.6544C41.123 51.6544 35.5277 57.2498 35.5277 64.1269V85.7995H15.5733V46.0966C15.5733 44.719 14.4564 43.6022 13.079 43.6022C11.7017 43.6022 10.5847 44.719 10.5847 46.0966V88.294C10.5847 89.6715 11.7017 90.7883 13.079 90.7883H38.022C39.3337 90.7883 40.4072 89.7749 40.5065 88.4882C40.5125 88.4299 40.5163 88.3662 40.5163 88.294V64.1271C40.5163 60.0004 43.8735 56.6432 48.0002 56.6432C52.1268 56.6432 55.484 60.0006 55.484 64.1271V88.294C55.484 88.3658 55.4878 88.4284 55.4938 88.486C55.592 89.7735 56.6658 90.7883 57.9783 90.7883H82.9213C84.2989 90.7883 85.4156 89.6715 85.4156 88.294V46.0966C85.4154 44.7188 84.2987 43.6021 82.9211 43.6021Z" fill="white"/>
</g>
<defs>
<clipPath id="clip0">
<rect width="96" height="96" fill="white"/>
</clipPath>
</defs>
</svg>
