<svg width="67" height="82" viewBox="0 0 67 82" fill="none" xmlns="http://www.w3.org/2000/svg">
<path d="M61.5696 68.5216L61.5717 68.5281L60.9997 68.6539C60.6902 68.7031 60.4375 68.7753 60.2056 68.8869L59.965 68.9766C56.162 70.9049 52.1523 71.8947 48.1 71.8947C47.365 71.8947 45.9857 71.7 44.0006 71.3161C42.0187 70.976 39.8618 70.5942 37.5529 70.1775C35.2483 69.7608 32.9832 69.3638 30.7639 68.9809C28.5239 68.5948 26.7914 68.41 25.4691 68.41C24.535 68.41 23.5889 68.4548 22.6548 68.5434L18.667 68.9241L21.3927 65.9884C21.6661 65.6953 21.9242 65.4033 22.1725 65.1134C23.3942 63.685 24.407 62.1767 25.1825 60.6257C25.9569 59.0748 26.5246 57.3664 26.868 55.542C27.2114 53.7132 27.3875 51.6515 27.3875 49.4148C27.3875 48.3943 27.2683 47.3815 27.031 46.4015L26.576 44.5191L41.8109 44.4896C42.081 44.4666 42.3129 44.4054 42.5393 44.3004C44.2281 43.7502 45.3218 42.2583 45.3218 40.5641C45.3218 38.6752 43.9721 37.0575 42.1095 36.7152C41.9738 36.6856 41.8513 36.6692 41.7277 36.6659L41.7102 36.667C41.6632 36.6659 41.626 36.6649 41.5965 36.6627L41.3985 36.6769H24.6936L24.3589 35.6061C22.6056 29.9809 21.7186 25.2296 21.7186 21.4813C21.7186 19.6482 22.0609 17.8818 22.7369 16.2313C23.4117 14.5863 24.3524 13.1174 25.5336 11.8672C26.7072 10.6225 28.1575 9.62942 29.8441 8.91629C31.5252 8.20644 33.4327 7.8455 35.5108 7.8455C43.9667 7.8455 48.4401 11.864 49.1861 20.1306C49.1992 20.1754 49.209 20.2224 49.2178 20.2695L49.2473 20.6435L49.2364 20.7212C49.2451 20.8907 49.2932 21.1499 49.3917 21.4551C49.7865 24.0834 51.9139 25.9286 54.4689 25.9286C57.1136 25.9286 59.2967 23.916 59.5702 21.3424H59.568L59.5986 20.637C59.5997 20.626 59.5888 20.5407 59.5844 20.4456L59.5822 20.3329C59.2847 17.0516 58.4906 14.0952 57.2306 11.5686C55.9706 9.05192 54.3026 6.91363 52.277 5.21502C50.2448 3.50877 47.7992 2.19954 45.0145 1.32344C42.2243 0.445158 39.1126 0 35.7701 0C32.1508 0 28.8061 0.523909 25.8278 1.55751C22.8452 2.5922 20.2519 4.08627 18.1223 5.99378C15.9862 7.90675 14.3018 10.289 13.1162 13.0747C11.9284 15.866 11.3257 19.0248 11.3257 22.469C11.3257 24.0921 11.5445 26.0926 11.9765 28.4136C12.3156 30.2522 12.8329 32.3751 13.5165 34.7256L14.0831 36.678L5.39758 36.6594C3.40804 36.8475 1.84506 38.5275 1.84506 40.5663C1.84506 42.5679 3.35773 44.2347 5.36149 44.4447L5.73555 44.5125L16.3373 44.5213L16.5998 45.7211C17.0012 47.5685 17.2058 49.4607 17.2058 51.3409C17.2058 54.107 16.9422 56.5909 16.4226 58.7171C15.9053 60.8379 15.1517 62.7444 14.1804 64.3762C13.2114 66.0016 12.0093 67.4431 10.6028 68.6572C9.20385 69.868 7.57962 70.9574 5.78149 71.8892C2.88304 72.8528 -0.353384 74.5985 0.195681 77.6533C0.64412 80.1482 3.01976 81.9638 5.55289 81.628C5.62946 81.6149 5.63164 81.6138 5.69836 81.5821C12.7804 78.3533 19.2117 76.7247 24.8467 76.7247C25.5763 76.7247 26.5956 76.8472 27.8753 77.09C29.1572 77.3329 30.5758 77.6304 32.0918 77.9782C33.6176 78.3227 35.1969 78.7033 36.8255 79.1211C38.4552 79.5368 40.0237 79.9185 41.5331 80.2641C43.0424 80.6108 44.4195 80.9171 45.6674 81.1763C46.9209 81.4366 47.8878 81.5635 48.6206 81.5635H48.8437C54.5356 81.5635 60.5786 79.1835 60.8346 79.0818C61.3924 78.839 63.0986 78.2057 63.0986 78.2057C65.8079 77.591 67.4725 74.9616 66.8808 72.3235C66.3438 69.9281 64.0196 68.2612 61.5696 68.5216Z" fill="#072A54"/>
</svg>
