<svg xmlns="http://www.w3.org/2000/svg" width="1041" height="420" viewBox="0 0 1041 420" fill="none">
<path d="M92.7678 5.85481L7.13574 55.2637V154.224L92.7678 203.633L178.257 154.224V55.2637L92.7678 5.85481Z" fill="white"/>
<path d="M435.011 5.85481L349.379 55.2637V154.224L435.011 203.633L520.5 154.224V55.2637L435.011 5.85481Z" fill="white"/>
<path d="M263.89 156.081L178.258 205.49V304.307L263.89 353.716L349.379 304.307V205.49L263.89 156.081Z" fill="white"/>
<path d="M185.393 139.516H171.121V238.334H185.393V139.516Z" fill="#F21100"/>
<path d="M356.514 139.516H342.242V238.334H356.514V139.516Z" fill="#C60500"/>
<path d="M606.132 156.081L520.5 205.49V304.307L606.132 353.716L691.621 304.307V205.49L606.132 156.081Z" fill="white"/>
<path d="M527.636 139.516H513.364V238.334H527.636V139.516Z" fill="#F21100"/>
<path d="M698.757 139.516H684.485V238.334H698.757V139.516Z" fill="#C60500"/>
<path d="M777.253 5.85481L691.621 55.2637V154.224L777.253 203.633L862.742 154.224V55.2637L777.253 5.85481Z" fill="white"/>
<path d="M948.374 156.081L862.742 205.49V304.307L948.374 353.716L1033.86 304.307V205.49L948.374 156.081Z" fill="white"/>
<path d="M869.878 139.516H855.606V238.334H869.878V139.516Z" fill="#F21100"/>
<path d="M87.0592 192.066L14.272 150.083V59.4049L87.0592 17.4216V0.856802L0 51.2653V158.366L87.0592 208.631V192.066Z" fill="#C60500"/>
<path d="M97.4775 0.428401V16.9932L171.121 59.4049V150.083L97.4775 192.638V209.06L185.393 158.366V51.2653L97.4775 0.428401Z" fill="#F21100"/>
<path d="M430.871 193.066L356.514 150.083V59.4049L430.871 16.422V0L342.242 51.2653V158.366L430.871 209.488V193.066Z" fill="#C60500"/>
<path d="M441.29 1.2852V17.85L513.364 59.4049V150.083L441.29 191.638V208.203L527.636 158.366V51.2653L441.29 1.2852Z" fill="#F21100"/>
<path d="M773.115 193.066L698.757 150.083V59.4049L773.115 16.422V0L684.485 51.2653V158.366L773.115 209.488V193.066Z" fill="#C60500"/>
<path d="M783.533 1.2852V17.85L855.607 59.4049V150.083L783.533 191.638V208.203L869.879 158.366V51.2653L783.533 1.2852Z" fill="#F21100"/>
<path d="M269.027 150.797V167.362L342.243 209.631V300.166L269.027 342.435V359L356.515 308.449V201.348L269.027 150.797Z" fill="#C60500"/>
<path d="M258.608 342.435L185.393 300.166V209.631L258.608 167.362V150.797L171.121 201.348V308.449L258.608 359V342.435Z" fill="#F21100"/>
<path d="M600.852 342.435L527.636 300.166V209.631L600.852 167.362V150.797L513.364 201.348V308.449L600.852 359V342.435Z" fill="#F21100"/>
<path d="M611.27 150.797V167.362L684.485 209.631V300.166L611.27 342.435V359L698.757 308.449V201.348L611.27 150.797Z" fill="#C60500"/>
<path d="M943.094 342.435L869.878 300.166V209.631L943.094 167.362V150.797L855.606 201.348V308.449L943.094 359V342.435Z" fill="#F21100"/>
<path d="M953.512 150.797V167.362L1026.73 209.631V300.166L953.512 342.435V359L1041 308.449V201.348L953.512 150.797Z" fill="#C60500"/>
<path d="M74.2084 102.256C75.4404 102.256 76.4164 102.528 77.1364 103.072C77.8564 103.6 78.2164 104.344 78.2164 105.304C78.2164 105.96 78.0244 106.568 77.6404 107.128C77.2724 107.688 76.8324 108.184 76.3204 108.616C75.8084 109.048 75.1044 109.584 74.2084 110.224C73.0564 111.024 72.2484 111.664 71.7844 112.144H76.9684C77.4004 112.144 77.7204 112.112 77.9284 112.048C78.1524 111.984 78.3044 111.88 78.3844 111.736C78.4644 111.592 78.5284 111.368 78.5764 111.064H79.0804C79.0804 112.952 79.1124 114.304 79.1764 115.12C78.8244 115.04 77.6324 115 75.6004 115H68.6164V114.544C68.8244 114.32 69.2324 113.936 69.8404 113.392C70.7684 112.544 71.5364 111.792 72.1444 111.136C72.7684 110.464 73.3044 109.696 73.7524 108.832C74.2164 107.952 74.4484 107.04 74.4484 106.096C74.4484 105.248 74.2564 104.632 73.8724 104.248C73.5044 103.848 72.9524 103.648 72.2164 103.648C71.5444 103.648 70.9444 103.808 70.4164 104.128C69.9044 104.432 69.4324 104.888 69.0004 105.496L68.5924 105.256C69.7764 103.256 71.6484 102.256 74.2084 102.256ZM88.0429 102.256C89.3069 102.256 90.4349 102.52 91.4269 103.048C92.4189 103.576 93.1869 104.32 93.7309 105.28C94.2909 106.24 94.5709 107.344 94.5709 108.592C94.5709 109.872 94.2829 111.024 93.7069 112.048C93.1469 113.072 92.3469 113.88 91.3069 114.472C90.2829 115.048 89.1069 115.336 87.7789 115.336C86.5309 115.336 85.4109 115.072 84.4189 114.544C83.4269 114.016 82.6509 113.272 82.0909 112.312C81.5309 111.352 81.2509 110.24 81.2509 108.976C81.2509 107.712 81.5309 106.568 82.0909 105.544C82.6669 104.52 83.4669 103.72 84.4909 103.144C85.5149 102.552 86.6989 102.256 88.0429 102.256ZM87.8269 102.688C87.2509 102.688 86.7389 102.936 86.2909 103.432C85.8429 103.928 85.4909 104.648 85.2349 105.592C84.9949 106.52 84.8749 107.624 84.8749 108.904C84.8749 110.936 85.1629 112.448 85.7389 113.44C86.3309 114.416 87.0829 114.904 87.9949 114.904C88.5709 114.904 89.0749 114.656 89.5069 114.16C89.9549 113.648 90.3069 112.928 90.5629 112C90.8189 111.056 90.9469 109.944 90.9469 108.664C90.9469 106.632 90.6509 105.128 90.0589 104.152C89.4829 103.176 88.7389 102.688 87.8269 102.688ZM102.408 112.672C102.408 113.36 102.536 113.84 102.792 114.112C103.048 114.368 103.496 114.496 104.136 114.496V115C102.408 114.936 101.304 114.904 100.824 114.904C100.296 114.904 99.1437 114.928 97.3677 114.976L96.6957 115V114.496C97.4477 114.496 98.0077 114.352 98.3757 114.064C98.7597 113.776 98.9517 113.264 98.9517 112.528V106.672C98.9517 105.904 98.8797 105.344 98.7357 104.992C98.6077 104.624 98.3837 104.384 98.0637 104.272C97.7437 104.144 97.2557 104.08 96.5997 104.08V103.552C97.9917 103.52 99.1357 103.416 100.032 103.24C100.928 103.048 101.72 102.744 102.408 102.328V112.672ZM111.499 102.256C113.259 102.256 114.635 102.84 115.627 104.008C116.635 105.16 117.139 106.784 117.139 108.88C117.139 110.88 116.643 112.584 115.651 113.992C114.659 115.384 113.443 116.456 112.003 117.208C110.563 117.96 109.131 118.44 107.707 118.648L107.611 118.168C108.571 117.88 109.411 117.52 110.131 117.088C110.867 116.656 111.515 116 112.075 115.12C112.651 114.256 113.059 113.112 113.299 111.688C112.963 112.184 112.523 112.552 111.979 112.792C111.435 113.032 110.851 113.152 110.227 113.152C109.363 113.152 108.571 112.944 107.851 112.528C107.147 112.096 106.579 111.488 106.147 110.704C105.731 109.92 105.523 109 105.523 107.944C105.523 106.76 105.787 105.744 106.315 104.896C106.859 104.032 107.587 103.376 108.499 102.928C109.411 102.48 110.411 102.256 111.499 102.256ZM111.187 112.456C111.587 112.456 111.995 112.32 112.411 112.048C112.843 111.76 113.179 111.32 113.419 110.728C113.483 110.2 113.515 109.544 113.515 108.76C113.515 106.632 113.291 105.096 112.843 104.152C112.395 103.208 111.859 102.736 111.235 102.736C110.643 102.736 110.147 103.152 109.747 103.984C109.347 104.8 109.147 106.056 109.147 107.752C109.147 109.368 109.331 110.56 109.699 111.328C110.083 112.08 110.579 112.456 111.187 112.456Z" fill="#233A75"/>
<path d="M236.99 264.832C236.718 266.64 236.166 267.888 235.334 268.576C234.982 268.864 234.534 269.088 233.99 269.248C233.462 269.424 232.878 269.512 232.238 269.512C231.374 269.512 230.518 269.376 229.67 269.104C228.838 268.832 227.806 268.424 226.574 267.88C226.27 267.752 225.934 267.608 225.566 267.448C225.214 267.304 224.814 267.144 224.366 266.968L223.79 266.8C223.486 266.96 223.15 267.08 222.782 267.16C222.43 267.256 222.094 267.304 221.774 267.304C221.438 267.304 221.166 267.248 220.958 267.136C220.75 267.04 220.646 266.888 220.646 266.68C220.646 266.248 221.086 266.032 221.966 266.032C222.558 266.032 223.166 266.144 223.79 266.368C224.334 266.208 224.91 265.992 225.518 265.72C225.63 265.672 225.798 265.6 226.022 265.504C226.246 265.424 226.446 265.352 226.622 265.288C225.134 265.144 223.83 264.712 222.71 263.992C221.606 263.256 220.75 262.264 220.142 261.016C219.55 259.768 219.254 258.312 219.254 256.648C219.254 254.888 219.614 253.328 220.334 251.968C221.054 250.608 222.054 249.552 223.334 248.8C224.63 248.048 226.102 247.672 227.75 247.672C229.446 247.672 230.926 248.016 232.19 248.704C233.47 249.392 234.462 250.392 235.166 251.704C235.87 253 236.222 254.552 236.222 256.36C236.222 258.056 235.886 259.576 235.214 260.92C234.542 262.248 233.598 263.296 232.382 264.064C231.166 264.832 229.782 265.248 228.23 265.312C227.846 265.36 227.502 265.432 227.198 265.528C226.894 265.624 226.534 265.76 226.118 265.936C225.606 266.16 225.11 266.344 224.63 266.488L226.574 266.656C228.606 266.832 230.07 266.92 230.966 266.92C231.558 266.92 232.158 266.88 232.766 266.8C233.758 266.688 234.542 266.472 235.118 266.152C235.694 265.848 236.174 265.368 236.558 264.712L236.99 264.832ZM223.238 256.552C223.238 258.216 223.438 259.68 223.838 260.944C224.254 262.208 224.806 263.184 225.494 263.872C226.198 264.56 226.974 264.904 227.822 264.904C228.702 264.904 229.478 264.552 230.15 263.848C230.822 263.128 231.334 262.128 231.686 260.848C232.054 259.568 232.238 258.104 232.238 256.456C232.238 254.792 232.03 253.328 231.614 252.064C231.214 250.8 230.662 249.824 229.958 249.136C229.27 248.448 228.502 248.104 227.654 248.104C226.774 248.104 225.998 248.464 225.326 249.184C224.654 249.888 224.134 250.88 223.766 252.16C223.414 253.44 223.238 254.904 223.238 256.552ZM243.853 252.256C245.085 252.256 246.061 252.528 246.781 253.072C247.501 253.6 247.861 254.344 247.861 255.304C247.861 255.96 247.669 256.568 247.285 257.128C246.917 257.688 246.477 258.184 245.965 258.616C245.453 259.048 244.749 259.584 243.853 260.224C242.701 261.024 241.893 261.664 241.429 262.144H246.613C247.045 262.144 247.365 262.112 247.573 262.048C247.797 261.984 247.949 261.88 248.029 261.736C248.109 261.592 248.173 261.368 248.221 261.064H248.725C248.725 262.952 248.757 264.304 248.821 265.12C248.469 265.04 247.277 265 245.245 265H238.261V264.544C238.469 264.32 238.877 263.936 239.485 263.392C240.413 262.544 241.181 261.792 241.789 261.136C242.413 260.464 242.949 259.696 243.397 258.832C243.861 257.952 244.093 257.04 244.093 256.096C244.093 255.248 243.901 254.632 243.517 254.248C243.149 253.848 242.597 253.648 241.861 253.648C241.189 253.648 240.589 253.808 240.061 254.128C239.549 254.432 239.077 254.888 238.645 255.496L238.237 255.256C239.421 253.256 241.293 252.256 243.853 252.256ZM261.595 252.256C262.827 252.256 263.803 252.528 264.523 253.072C265.243 253.6 265.603 254.344 265.603 255.304C265.603 255.96 265.411 256.568 265.027 257.128C264.659 257.688 264.219 258.184 263.707 258.616C263.195 259.048 262.491 259.584 261.595 260.224C260.443 261.024 259.635 261.664 259.171 262.144H264.355C264.787 262.144 265.107 262.112 265.315 262.048C265.539 261.984 265.691 261.88 265.771 261.736C265.851 261.592 265.915 261.368 265.963 261.064H266.467C266.467 262.952 266.499 264.304 266.563 265.12C266.211 265.04 265.019 265 262.987 265H256.003V264.544C256.211 264.32 256.619 263.936 257.227 263.392C258.155 262.544 258.923 261.792 259.531 261.136C260.155 260.464 260.691 259.696 261.139 258.832C261.603 257.952 261.835 257.04 261.835 256.096C261.835 255.248 261.643 254.632 261.259 254.248C260.891 253.848 260.339 253.648 259.603 253.648C258.931 253.648 258.331 253.808 257.803 254.128C257.291 254.432 256.819 254.888 256.387 255.496L255.979 255.256C257.163 253.256 259.035 252.256 261.595 252.256ZM275.43 252.256C276.694 252.256 277.822 252.52 278.814 253.048C279.806 253.576 280.574 254.32 281.118 255.28C281.678 256.24 281.958 257.344 281.958 258.592C281.958 259.872 281.67 261.024 281.094 262.048C280.534 263.072 279.734 263.88 278.694 264.472C277.67 265.048 276.494 265.336 275.166 265.336C273.918 265.336 272.798 265.072 271.806 264.544C270.814 264.016 270.038 263.272 269.478 262.312C268.918 261.352 268.638 260.24 268.638 258.976C268.638 257.712 268.918 256.568 269.478 255.544C270.054 254.52 270.854 253.72 271.878 253.144C272.902 252.552 274.086 252.256 275.43 252.256ZM275.214 252.688C274.638 252.688 274.126 252.936 273.678 253.432C273.23 253.928 272.878 254.648 272.622 255.592C272.382 256.52 272.262 257.624 272.262 258.904C272.262 260.936 272.55 262.448 273.126 263.44C273.718 264.416 274.47 264.904 275.382 264.904C275.958 264.904 276.462 264.656 276.894 264.16C277.342 263.648 277.694 262.928 277.95 262C278.206 261.056 278.334 259.944 278.334 258.664C278.334 256.632 278.038 255.128 277.446 254.152C276.87 253.176 276.126 252.688 275.214 252.688ZM289.794 262.672C289.794 263.36 289.922 263.84 290.178 264.112C290.434 264.368 290.882 264.496 291.522 264.496V265C289.794 264.936 288.69 264.904 288.21 264.904C287.682 264.904 286.53 264.928 284.754 264.976L284.082 265V264.496C284.834 264.496 285.394 264.352 285.762 264.064C286.146 263.776 286.338 263.264 286.338 262.528V256.672C286.338 255.904 286.266 255.344 286.122 254.992C285.994 254.624 285.77 254.384 285.45 254.272C285.13 254.144 284.642 254.08 283.986 254.08V253.552C285.378 253.52 286.522 253.416 287.418 253.24C288.314 253.048 289.106 252.744 289.794 252.328V262.672ZM298.886 252.256C300.646 252.256 302.022 252.84 303.014 254.008C304.022 255.16 304.526 256.784 304.526 258.88C304.526 260.88 304.03 262.584 303.038 263.992C302.046 265.384 300.83 266.456 299.39 267.208C297.95 267.96 296.518 268.44 295.094 268.648L294.998 268.168C295.958 267.88 296.798 267.52 297.518 267.088C298.254 266.656 298.902 266 299.462 265.12C300.038 264.256 300.446 263.112 300.686 261.688C300.35 262.184 299.91 262.552 299.366 262.792C298.822 263.032 298.238 263.152 297.614 263.152C296.75 263.152 295.958 262.944 295.238 262.528C294.534 262.096 293.966 261.488 293.534 260.704C293.118 259.92 292.91 259 292.91 257.944C292.91 256.76 293.174 255.744 293.702 254.896C294.246 254.032 294.974 253.376 295.886 252.928C296.798 252.48 297.798 252.256 298.886 252.256ZM298.574 262.456C298.974 262.456 299.382 262.32 299.798 262.048C300.23 261.76 300.566 261.32 300.806 260.728C300.87 260.2 300.902 259.544 300.902 258.76C300.902 256.632 300.678 255.096 300.23 254.152C299.782 253.208 299.246 252.736 298.622 252.736C298.03 252.736 297.534 253.152 297.134 253.984C296.734 254.8 296.534 256.056 296.534 257.752C296.534 259.368 296.718 260.56 297.086 261.328C297.47 262.08 297.966 262.456 298.574 262.456Z" fill="#233A75"/>
<path d="M579.771 264.832C579.499 266.64 578.947 267.888 578.115 268.576C577.763 268.864 577.315 269.088 576.771 269.248C576.243 269.424 575.659 269.512 575.019 269.512C574.155 269.512 573.299 269.376 572.451 269.104C571.619 268.832 570.587 268.424 569.355 267.88C569.051 267.752 568.715 267.608 568.347 267.448C567.995 267.304 567.595 267.144 567.147 266.968L566.571 266.8C566.267 266.96 565.931 267.08 565.563 267.16C565.211 267.256 564.875 267.304 564.555 267.304C564.219 267.304 563.947 267.248 563.739 267.136C563.531 267.04 563.427 266.888 563.427 266.68C563.427 266.248 563.867 266.032 564.747 266.032C565.339 266.032 565.947 266.144 566.571 266.368C567.115 266.208 567.691 265.992 568.299 265.72C568.411 265.672 568.579 265.6 568.803 265.504C569.027 265.424 569.227 265.352 569.403 265.288C567.915 265.144 566.611 264.712 565.491 263.992C564.387 263.256 563.531 262.264 562.923 261.016C562.331 259.768 562.035 258.312 562.035 256.648C562.035 254.888 562.395 253.328 563.115 251.968C563.835 250.608 564.835 249.552 566.115 248.8C567.411 248.048 568.883 247.672 570.531 247.672C572.227 247.672 573.707 248.016 574.971 248.704C576.251 249.392 577.243 250.392 577.947 251.704C578.651 253 579.003 254.552 579.003 256.36C579.003 258.056 578.667 259.576 577.995 260.92C577.323 262.248 576.379 263.296 575.163 264.064C573.947 264.832 572.563 265.248 571.011 265.312C570.627 265.36 570.283 265.432 569.979 265.528C569.675 265.624 569.315 265.76 568.899 265.936C568.387 266.16 567.891 266.344 567.411 266.488L569.355 266.656C571.387 266.832 572.851 266.92 573.747 266.92C574.339 266.92 574.939 266.88 575.547 266.8C576.539 266.688 577.323 266.472 577.899 266.152C578.475 265.848 578.955 265.368 579.339 264.712L579.771 264.832ZM566.019 256.552C566.019 258.216 566.219 259.68 566.619 260.944C567.035 262.208 567.587 263.184 568.275 263.872C568.979 264.56 569.755 264.904 570.603 264.904C571.483 264.904 572.259 264.552 572.931 263.848C573.603 263.128 574.115 262.128 574.467 260.848C574.835 259.568 575.019 258.104 575.019 256.456C575.019 254.792 574.811 253.328 574.395 252.064C573.995 250.8 573.443 249.824 572.739 249.136C572.051 248.448 571.283 248.104 570.435 248.104C569.555 248.104 568.779 248.464 568.107 249.184C567.435 249.888 566.915 250.88 566.547 252.16C566.195 253.44 566.019 254.904 566.019 256.552ZM586.802 262.672C586.802 263.36 586.93 263.84 587.186 264.112C587.442 264.368 587.89 264.496 588.53 264.496V265C586.802 264.936 585.698 264.904 585.218 264.904C584.69 264.904 583.538 264.928 581.762 264.976L581.09 265V264.496C581.842 264.496 582.402 264.352 582.77 264.064C583.154 263.776 583.346 263.264 583.346 262.528V256.672C583.346 255.904 583.274 255.344 583.13 254.992C583.002 254.624 582.778 254.384 582.458 254.272C582.138 254.144 581.65 254.08 580.994 254.08V253.552C582.386 253.52 583.53 253.416 584.426 253.24C585.322 253.048 586.114 252.744 586.802 252.328V262.672ZM601.236 252.256C602.468 252.256 603.444 252.528 604.164 253.072C604.884 253.6 605.244 254.344 605.244 255.304C605.244 255.96 605.052 256.568 604.668 257.128C604.3 257.688 603.86 258.184 603.348 258.616C602.836 259.048 602.132 259.584 601.236 260.224C600.084 261.024 599.276 261.664 598.812 262.144H603.996C604.428 262.144 604.748 262.112 604.956 262.048C605.18 261.984 605.332 261.88 605.412 261.736C605.492 261.592 605.556 261.368 605.604 261.064H606.108C606.108 262.952 606.14 264.304 606.204 265.12C605.852 265.04 604.66 265 602.628 265H595.644V264.544C595.852 264.32 596.26 263.936 596.868 263.392C597.796 262.544 598.564 261.792 599.172 261.136C599.796 260.464 600.332 259.696 600.78 258.832C601.244 257.952 601.476 257.04 601.476 256.096C601.476 255.248 601.284 254.632 600.9 254.248C600.532 253.848 599.98 253.648 599.244 253.648C598.572 253.648 597.972 253.808 597.444 254.128C596.932 254.432 596.46 254.888 596.028 255.496L595.62 255.256C596.804 253.256 598.676 252.256 601.236 252.256ZM615.07 252.256C616.334 252.256 617.462 252.52 618.454 253.048C619.446 253.576 620.214 254.32 620.758 255.28C621.318 256.24 621.598 257.344 621.598 258.592C621.598 259.872 621.31 261.024 620.734 262.048C620.174 263.072 619.374 263.88 618.334 264.472C617.31 265.048 616.134 265.336 614.806 265.336C613.558 265.336 612.438 265.072 611.446 264.544C610.454 264.016 609.678 263.272 609.118 262.312C608.558 261.352 608.278 260.24 608.278 258.976C608.278 257.712 608.558 256.568 609.118 255.544C609.694 254.52 610.494 253.72 611.518 253.144C612.542 252.552 613.726 252.256 615.07 252.256ZM614.854 252.688C614.278 252.688 613.766 252.936 613.318 253.432C612.87 253.928 612.518 254.648 612.262 255.592C612.022 256.52 611.902 257.624 611.902 258.904C611.902 260.936 612.19 262.448 612.766 263.44C613.358 264.416 614.11 264.904 615.022 264.904C615.598 264.904 616.102 264.656 616.534 264.16C616.982 263.648 617.334 262.928 617.59 262C617.846 261.056 617.974 259.944 617.974 258.664C617.974 256.632 617.678 255.128 617.086 254.152C616.51 253.176 615.766 252.688 614.854 252.688ZM629.267 252.256C630.499 252.256 631.475 252.528 632.195 253.072C632.915 253.6 633.275 254.344 633.275 255.304C633.275 255.96 633.083 256.568 632.699 257.128C632.331 257.688 631.891 258.184 631.379 258.616C630.867 259.048 630.163 259.584 629.267 260.224C628.115 261.024 627.307 261.664 626.843 262.144H632.027C632.459 262.144 632.779 262.112 632.987 262.048C633.211 261.984 633.363 261.88 633.443 261.736C633.523 261.592 633.587 261.368 633.635 261.064H634.139C634.139 262.952 634.171 264.304 634.235 265.12C633.883 265.04 632.691 265 630.659 265H623.675V264.544C623.883 264.32 624.291 263.936 624.899 263.392C625.827 262.544 626.595 261.792 627.203 261.136C627.827 260.464 628.363 259.696 628.811 258.832C629.275 257.952 629.507 257.04 629.507 256.096C629.507 255.248 629.315 254.632 628.931 254.248C628.563 253.848 628.011 253.648 627.275 253.648C626.603 253.648 626.003 253.808 625.475 254.128C624.963 254.432 624.491 254.888 624.059 255.496L623.651 255.256C624.835 253.256 626.707 252.256 629.267 252.256ZM643.102 252.256C644.366 252.256 645.494 252.52 646.486 253.048C647.478 253.576 648.246 254.32 648.79 255.28C649.35 256.24 649.63 257.344 649.63 258.592C649.63 259.872 649.342 261.024 648.766 262.048C648.206 263.072 647.406 263.88 646.366 264.472C645.342 265.048 644.166 265.336 642.838 265.336C641.59 265.336 640.47 265.072 639.478 264.544C638.486 264.016 637.71 263.272 637.15 262.312C636.59 261.352 636.31 260.24 636.31 258.976C636.31 257.712 636.59 256.568 637.15 255.544C637.726 254.52 638.526 253.72 639.55 253.144C640.574 252.552 641.758 252.256 643.102 252.256ZM642.886 252.688C642.31 252.688 641.798 252.936 641.35 253.432C640.902 253.928 640.55 254.648 640.294 255.592C640.054 256.52 639.934 257.624 639.934 258.904C639.934 260.936 640.222 262.448 640.798 263.44C641.39 264.416 642.142 264.904 643.054 264.904C643.63 264.904 644.134 264.656 644.566 264.16C645.014 263.648 645.366 262.928 645.622 262C645.878 261.056 646.006 259.944 646.006 258.664C646.006 256.632 645.71 255.128 645.118 254.152C644.542 253.176 643.798 252.688 642.886 252.688Z" fill="#233A75"/>
<path d="M920.576 264.832C920.304 266.64 919.752 267.888 918.92 268.576C918.568 268.864 918.12 269.088 917.576 269.248C917.048 269.424 916.464 269.512 915.824 269.512C914.96 269.512 914.104 269.376 913.256 269.104C912.424 268.832 911.392 268.424 910.16 267.88C909.856 267.752 909.52 267.608 909.152 267.448C908.8 267.304 908.4 267.144 907.952 266.968L907.376 266.8C907.072 266.96 906.736 267.08 906.368 267.16C906.016 267.256 905.68 267.304 905.36 267.304C905.024 267.304 904.752 267.248 904.544 267.136C904.336 267.04 904.232 266.888 904.232 266.68C904.232 266.248 904.672 266.032 905.552 266.032C906.144 266.032 906.752 266.144 907.376 266.368C907.92 266.208 908.496 265.992 909.104 265.72C909.216 265.672 909.384 265.6 909.608 265.504C909.832 265.424 910.032 265.352 910.208 265.288C908.72 265.144 907.416 264.712 906.296 263.992C905.192 263.256 904.336 262.264 903.728 261.016C903.136 259.768 902.84 258.312 902.84 256.648C902.84 254.888 903.2 253.328 903.92 251.968C904.64 250.608 905.64 249.552 906.92 248.8C908.216 248.048 909.688 247.672 911.336 247.672C913.032 247.672 914.512 248.016 915.776 248.704C917.056 249.392 918.048 250.392 918.752 251.704C919.456 253 919.808 254.552 919.808 256.36C919.808 258.056 919.472 259.576 918.8 260.92C918.128 262.248 917.184 263.296 915.968 264.064C914.752 264.832 913.368 265.248 911.816 265.312C911.432 265.36 911.088 265.432 910.784 265.528C910.48 265.624 910.12 265.76 909.704 265.936C909.192 266.16 908.696 266.344 908.216 266.488L910.16 266.656C912.192 266.832 913.656 266.92 914.552 266.92C915.144 266.92 915.744 266.88 916.352 266.8C917.344 266.688 918.128 266.472 918.704 266.152C919.28 265.848 919.76 265.368 920.144 264.712L920.576 264.832ZM906.824 256.552C906.824 258.216 907.024 259.68 907.424 260.944C907.84 262.208 908.392 263.184 909.08 263.872C909.784 264.56 910.56 264.904 911.408 264.904C912.288 264.904 913.064 264.552 913.736 263.848C914.408 263.128 914.92 262.128 915.272 260.848C915.64 259.568 915.824 258.104 915.824 256.456C915.824 254.792 915.616 253.328 915.2 252.064C914.8 250.8 914.248 249.824 913.544 249.136C912.856 248.448 912.088 248.104 911.24 248.104C910.36 248.104 909.584 248.464 908.912 249.184C908.24 249.888 907.72 250.88 907.352 252.16C907 253.44 906.824 254.904 906.824 256.552ZM926.743 252.256C927.943 252.256 928.927 252.504 929.695 253C930.463 253.496 930.847 254.168 930.847 255.016C930.847 255.928 930.407 256.744 929.527 257.464C928.647 258.184 927.463 258.688 925.975 258.976C927.655 258.912 929.031 259.208 930.103 259.864C931.175 260.504 931.711 261.424 931.711 262.624C931.711 263.792 931.207 264.832 930.199 265.744C929.191 266.672 927.895 267.384 926.311 267.88C924.743 268.376 923.151 268.624 921.535 268.624V268.144C922.591 268.112 923.623 267.872 924.631 267.424C925.655 266.992 926.495 266.368 927.151 265.552C927.807 264.736 928.135 263.768 928.135 262.648C928.135 261.704 927.903 260.928 927.439 260.32C926.991 259.712 926.383 259.376 925.615 259.312C925.391 259.424 925.167 259.52 924.943 259.6C924.735 259.664 924.551 259.696 924.391 259.696C924.087 259.696 923.935 259.584 923.935 259.36C923.935 259.184 924.007 259.056 924.151 258.976C924.295 258.88 924.479 258.832 924.703 258.832C924.799 258.832 924.927 258.848 925.087 258.88C925.263 258.896 925.415 258.912 925.543 258.928C926.775 258.064 927.391 256.992 927.391 255.712C927.391 254.992 927.207 254.464 926.839 254.128C926.471 253.776 925.943 253.6 925.255 253.6C924.615 253.6 924.023 253.76 923.479 254.08C922.951 254.4 922.503 254.864 922.135 255.472L921.703 255.256C922.199 254.344 922.839 253.616 923.623 253.072C924.423 252.528 925.463 252.256 926.743 252.256ZM944.431 252.256C945.663 252.256 946.639 252.528 947.359 253.072C948.079 253.6 948.439 254.344 948.439 255.304C948.439 255.96 948.247 256.568 947.863 257.128C947.495 257.688 947.055 258.184 946.543 258.616C946.031 259.048 945.327 259.584 944.431 260.224C943.279 261.024 942.471 261.664 942.007 262.144H947.191C947.623 262.144 947.943 262.112 948.151 262.048C948.375 261.984 948.527 261.88 948.607 261.736C948.687 261.592 948.751 261.368 948.799 261.064H949.303C949.303 262.952 949.335 264.304 949.399 265.12C949.047 265.04 947.855 265 945.823 265H938.839V264.544C939.047 264.32 939.455 263.936 940.063 263.392C940.991 262.544 941.759 261.792 942.367 261.136C942.991 260.464 943.527 259.696 943.975 258.832C944.439 257.952 944.671 257.04 944.671 256.096C944.671 255.248 944.479 254.632 944.095 254.248C943.727 253.848 943.175 253.648 942.439 253.648C941.767 253.648 941.167 253.808 940.639 254.128C940.127 254.432 939.655 254.888 939.223 255.496L938.815 255.256C939.999 253.256 941.871 252.256 944.431 252.256ZM958.266 252.256C959.53 252.256 960.658 252.52 961.65 253.048C962.642 253.576 963.41 254.32 963.954 255.28C964.514 256.24 964.794 257.344 964.794 258.592C964.794 259.872 964.506 261.024 963.93 262.048C963.37 263.072 962.57 263.88 961.53 264.472C960.506 265.048 959.33 265.336 958.002 265.336C956.754 265.336 955.634 265.072 954.642 264.544C953.65 264.016 952.874 263.272 952.314 262.312C951.754 261.352 951.474 260.24 951.474 258.976C951.474 257.712 951.754 256.568 952.314 255.544C952.89 254.52 953.69 253.72 954.714 253.144C955.738 252.552 956.922 252.256 958.266 252.256ZM958.05 252.688C957.474 252.688 956.962 252.936 956.514 253.432C956.066 253.928 955.714 254.648 955.458 255.592C955.218 256.52 955.098 257.624 955.098 258.904C955.098 260.936 955.386 262.448 955.962 263.44C956.554 264.416 957.306 264.904 958.218 264.904C958.794 264.904 959.298 264.656 959.73 264.16C960.178 263.648 960.53 262.928 960.786 262C961.042 261.056 961.17 259.944 961.17 258.664C961.17 256.632 960.874 255.128 960.282 254.152C959.706 253.176 958.962 252.688 958.05 252.688ZM972.462 252.256C973.694 252.256 974.67 252.528 975.39 253.072C976.11 253.6 976.47 254.344 976.47 255.304C976.47 255.96 976.278 256.568 975.894 257.128C975.526 257.688 975.086 258.184 974.574 258.616C974.062 259.048 973.358 259.584 972.462 260.224C971.31 261.024 970.502 261.664 970.038 262.144H975.222C975.654 262.144 975.974 262.112 976.182 262.048C976.406 261.984 976.558 261.88 976.638 261.736C976.718 261.592 976.782 261.368 976.83 261.064H977.334C977.334 262.952 977.366 264.304 977.43 265.12C977.078 265.04 975.886 265 973.854 265H966.87V264.544C967.078 264.32 967.486 263.936 968.094 263.392C969.022 262.544 969.79 261.792 970.398 261.136C971.022 260.464 971.558 259.696 972.006 258.832C972.47 257.952 972.702 257.04 972.702 256.096C972.702 255.248 972.51 254.632 972.126 254.248C971.758 253.848 971.206 253.648 970.47 253.648C969.798 253.648 969.198 253.808 968.67 254.128C968.158 254.432 967.686 254.888 967.254 255.496L966.846 255.256C968.03 253.256 969.902 252.256 972.462 252.256ZM986.297 252.256C987.561 252.256 988.689 252.52 989.681 253.048C990.673 253.576 991.441 254.32 991.985 255.28C992.545 256.24 992.825 257.344 992.825 258.592C992.825 259.872 992.537 261.024 991.961 262.048C991.401 263.072 990.601 263.88 989.561 264.472C988.537 265.048 987.361 265.336 986.033 265.336C984.785 265.336 983.665 265.072 982.673 264.544C981.681 264.016 980.905 263.272 980.345 262.312C979.785 261.352 979.505 260.24 979.505 258.976C979.505 257.712 979.785 256.568 980.345 255.544C980.921 254.52 981.721 253.72 982.745 253.144C983.769 252.552 984.953 252.256 986.297 252.256ZM986.081 252.688C985.505 252.688 984.993 252.936 984.545 253.432C984.097 253.928 983.745 254.648 983.489 255.592C983.249 256.52 983.129 257.624 983.129 258.904C983.129 260.936 983.417 262.448 983.993 263.44C984.585 264.416 985.337 264.904 986.249 264.904C986.825 264.904 987.329 264.656 987.761 264.16C988.209 263.648 988.561 262.928 988.817 262C989.073 261.056 989.201 259.944 989.201 258.664C989.201 256.632 988.905 255.128 988.313 254.152C987.737 253.176 986.993 252.688 986.081 252.688Z" fill="#233A75"/>
<path d="M410.365 114.832C410.093 116.64 409.541 117.888 408.709 118.576C408.357 118.864 407.909 119.088 407.365 119.248C406.837 119.424 406.253 119.512 405.613 119.512C404.749 119.512 403.893 119.376 403.045 119.104C402.213 118.832 401.181 118.424 399.949 117.88C399.645 117.752 399.309 117.608 398.941 117.448C398.589 117.304 398.189 117.144 397.741 116.968L397.165 116.8C396.861 116.96 396.525 117.08 396.157 117.16C395.805 117.256 395.469 117.304 395.149 117.304C394.813 117.304 394.541 117.248 394.333 117.136C394.125 117.04 394.021 116.888 394.021 116.68C394.021 116.248 394.461 116.032 395.341 116.032C395.933 116.032 396.541 116.144 397.165 116.368C397.709 116.208 398.285 115.992 398.893 115.72C399.005 115.672 399.173 115.6 399.397 115.504C399.621 115.424 399.821 115.352 399.997 115.288C398.509 115.144 397.205 114.712 396.085 113.992C394.981 113.256 394.125 112.264 393.517 111.016C392.925 109.768 392.629 108.312 392.629 106.648C392.629 104.888 392.989 103.328 393.709 101.968C394.429 100.608 395.429 99.552 396.709 98.8C398.005 98.048 399.477 97.672 401.125 97.672C402.821 97.672 404.301 98.016 405.565 98.704C406.845 99.392 407.837 100.392 408.541 101.704C409.245 103 409.597 104.552 409.597 106.36C409.597 108.056 409.261 109.576 408.589 110.92C407.917 112.248 406.973 113.296 405.757 114.064C404.541 114.832 403.157 115.248 401.605 115.312C401.221 115.36 400.877 115.432 400.573 115.528C400.269 115.624 399.909 115.76 399.493 115.936C398.981 116.16 398.485 116.344 398.005 116.488L399.949 116.656C401.981 116.832 403.445 116.92 404.341 116.92C404.933 116.92 405.533 116.88 406.141 116.8C407.133 116.688 407.917 116.472 408.493 116.152C409.069 115.848 409.549 115.368 409.933 114.712L410.365 114.832ZM396.613 106.552C396.613 108.216 396.813 109.68 397.213 110.944C397.629 112.208 398.181 113.184 398.869 113.872C399.573 114.56 400.349 114.904 401.197 114.904C402.077 114.904 402.853 114.552 403.525 113.848C404.197 113.128 404.709 112.128 405.061 110.848C405.429 109.568 405.613 108.104 405.613 106.456C405.613 104.792 405.405 103.328 404.989 102.064C404.589 100.8 404.037 99.824 403.333 99.136C402.645 98.448 401.877 98.104 401.029 98.104C400.149 98.104 399.373 98.464 398.701 99.184C398.029 99.888 397.509 100.88 397.141 102.16C396.789 103.44 396.613 104.904 396.613 106.552ZM416.532 102.256C417.732 102.256 418.716 102.504 419.484 103C420.252 103.496 420.636 104.168 420.636 105.016C420.636 105.928 420.196 106.744 419.316 107.464C418.436 108.184 417.252 108.688 415.764 108.976C417.444 108.912 418.82 109.208 419.892 109.864C420.964 110.504 421.5 111.424 421.5 112.624C421.5 113.792 420.996 114.832 419.988 115.744C418.98 116.672 417.684 117.384 416.1 117.88C414.532 118.376 412.94 118.624 411.324 118.624V118.144C412.38 118.112 413.412 117.872 414.42 117.424C415.444 116.992 416.284 116.368 416.94 115.552C417.596 114.736 417.924 113.768 417.924 112.648C417.924 111.704 417.692 110.928 417.228 110.32C416.78 109.712 416.172 109.376 415.404 109.312C415.18 109.424 414.956 109.52 414.732 109.6C414.524 109.664 414.34 109.696 414.18 109.696C413.876 109.696 413.724 109.584 413.724 109.36C413.724 109.184 413.796 109.056 413.94 108.976C414.084 108.88 414.268 108.832 414.492 108.832C414.588 108.832 414.716 108.848 414.876 108.88C415.052 108.896 415.204 108.912 415.332 108.928C416.564 108.064 417.18 106.992 417.18 105.712C417.18 104.992 416.996 104.464 416.628 104.128C416.26 103.776 415.732 103.6 415.044 103.6C414.404 103.6 413.812 103.76 413.268 104.08C412.74 104.4 412.292 104.864 411.924 105.472L411.492 105.256C411.988 104.344 412.628 103.616 413.412 103.072C414.212 102.528 415.252 102.256 416.532 102.256ZM434.22 102.256C435.452 102.256 436.428 102.528 437.148 103.072C437.868 103.6 438.228 104.344 438.228 105.304C438.228 105.96 438.036 106.568 437.652 107.128C437.284 107.688 436.844 108.184 436.332 108.616C435.82 109.048 435.116 109.584 434.22 110.224C433.068 111.024 432.26 111.664 431.796 112.144H436.98C437.412 112.144 437.732 112.112 437.94 112.048C438.164 111.984 438.316 111.88 438.396 111.736C438.476 111.592 438.54 111.368 438.588 111.064H439.092C439.092 112.952 439.124 114.304 439.188 115.12C438.836 115.04 437.644 115 435.612 115H428.628V114.544C428.836 114.32 429.244 113.936 429.852 113.392C430.78 112.544 431.548 111.792 432.156 111.136C432.78 110.464 433.316 109.696 433.764 108.832C434.228 107.952 434.46 107.04 434.46 106.096C434.46 105.248 434.268 104.632 433.884 104.248C433.516 103.848 432.964 103.648 432.228 103.648C431.556 103.648 430.956 103.808 430.428 104.128C429.916 104.432 429.444 104.888 429.012 105.496L428.604 105.256C429.788 103.256 431.66 102.256 434.22 102.256ZM448.055 102.256C449.319 102.256 450.447 102.52 451.439 103.048C452.431 103.576 453.199 104.32 453.743 105.28C454.303 106.24 454.583 107.344 454.583 108.592C454.583 109.872 454.295 111.024 453.719 112.048C453.159 113.072 452.359 113.88 451.319 114.472C450.295 115.048 449.119 115.336 447.791 115.336C446.543 115.336 445.423 115.072 444.431 114.544C443.439 114.016 442.663 113.272 442.103 112.312C441.543 111.352 441.263 110.24 441.263 108.976C441.263 107.712 441.543 106.568 442.103 105.544C442.679 104.52 443.479 103.72 444.503 103.144C445.527 102.552 446.711 102.256 448.055 102.256ZM447.839 102.688C447.263 102.688 446.751 102.936 446.303 103.432C445.855 103.928 445.503 104.648 445.247 105.592C445.007 106.52 444.887 107.624 444.887 108.904C444.887 110.936 445.175 112.448 445.751 113.44C446.343 114.416 447.095 114.904 448.007 114.904C448.583 114.904 449.087 114.656 449.519 114.16C449.967 113.648 450.319 112.928 450.575 112C450.831 111.056 450.959 109.944 450.959 108.664C450.959 106.632 450.663 105.128 450.071 104.152C449.495 103.176 448.751 102.688 447.839 102.688ZM462.419 112.672C462.419 113.36 462.547 113.84 462.803 114.112C463.059 114.368 463.507 114.496 464.147 114.496V115C462.419 114.936 461.315 114.904 460.835 114.904C460.307 114.904 459.155 114.928 457.379 114.976L456.707 115V114.496C457.459 114.496 458.019 114.352 458.387 114.064C458.771 113.776 458.963 113.264 458.963 112.528V106.672C458.963 105.904 458.891 105.344 458.747 104.992C458.619 104.624 458.395 104.384 458.075 104.272C457.755 104.144 457.267 104.08 456.611 104.08V103.552C458.003 103.52 459.147 103.416 460.043 103.24C460.939 103.048 461.731 102.744 462.419 102.328V112.672ZM471.511 102.256C473.271 102.256 474.647 102.84 475.639 104.008C476.647 105.16 477.151 106.784 477.151 108.88C477.151 110.88 476.655 112.584 475.663 113.992C474.671 115.384 473.455 116.456 472.015 117.208C470.575 117.96 469.143 118.44 467.719 118.648L467.623 118.168C468.583 117.88 469.423 117.52 470.143 117.088C470.879 116.656 471.527 116 472.087 115.12C472.663 114.256 473.071 113.112 473.311 111.688C472.975 112.184 472.535 112.552 471.991 112.792C471.447 113.032 470.863 113.152 470.239 113.152C469.375 113.152 468.583 112.944 467.863 112.528C467.159 112.096 466.591 111.488 466.159 110.704C465.743 109.92 465.535 109 465.535 107.944C465.535 106.76 465.799 105.744 466.327 104.896C466.871 104.032 467.599 103.376 468.511 102.928C469.423 102.48 470.423 102.256 471.511 102.256ZM471.199 112.456C471.599 112.456 472.007 112.32 472.423 112.048C472.855 111.76 473.191 111.32 473.431 110.728C473.495 110.2 473.527 109.544 473.527 108.76C473.527 106.632 473.303 105.096 472.855 104.152C472.407 103.208 471.871 102.736 471.247 102.736C470.655 102.736 470.159 103.152 469.759 103.984C469.359 104.8 469.159 106.056 469.159 107.752C469.159 109.368 469.343 110.56 469.711 111.328C470.095 112.08 470.591 112.456 471.199 112.456Z" fill="#233A75"/>
<path d="M749.201 114.832C748.929 116.64 748.377 117.888 747.545 118.576C747.193 118.864 746.745 119.088 746.201 119.248C745.673 119.424 745.089 119.512 744.449 119.512C743.585 119.512 742.729 119.376 741.881 119.104C741.049 118.832 740.017 118.424 738.785 117.88C738.481 117.752 738.145 117.608 737.777 117.448C737.425 117.304 737.025 117.144 736.577 116.968L736.001 116.8C735.697 116.96 735.361 117.08 734.993 117.16C734.641 117.256 734.305 117.304 733.985 117.304C733.649 117.304 733.377 117.248 733.169 117.136C732.961 117.04 732.857 116.888 732.857 116.68C732.857 116.248 733.297 116.032 734.177 116.032C734.769 116.032 735.377 116.144 736.001 116.368C736.545 116.208 737.121 115.992 737.729 115.72C737.841 115.672 738.009 115.6 738.233 115.504C738.457 115.424 738.657 115.352 738.833 115.288C737.345 115.144 736.041 114.712 734.921 113.992C733.817 113.256 732.961 112.264 732.353 111.016C731.761 109.768 731.465 108.312 731.465 106.648C731.465 104.888 731.825 103.328 732.545 101.968C733.265 100.608 734.265 99.552 735.545 98.8C736.841 98.048 738.313 97.672 739.961 97.672C741.657 97.672 743.137 98.016 744.401 98.704C745.681 99.392 746.673 100.392 747.377 101.704C748.081 103 748.433 104.552 748.433 106.36C748.433 108.056 748.097 109.576 747.425 110.92C746.753 112.248 745.809 113.296 744.593 114.064C743.377 114.832 741.993 115.248 740.441 115.312C740.057 115.36 739.713 115.432 739.409 115.528C739.105 115.624 738.745 115.76 738.329 115.936C737.817 116.16 737.321 116.344 736.841 116.488L738.785 116.656C740.817 116.832 742.281 116.92 743.177 116.92C743.769 116.92 744.369 116.88 744.977 116.8C745.969 116.688 746.753 116.472 747.329 116.152C747.905 115.848 748.385 115.368 748.769 114.712L749.201 114.832ZM735.449 106.552C735.449 108.216 735.649 109.68 736.049 110.944C736.465 112.208 737.017 113.184 737.705 113.872C738.409 114.56 739.185 114.904 740.033 114.904C740.913 114.904 741.689 114.552 742.361 113.848C743.033 113.128 743.545 112.128 743.897 110.848C744.265 109.568 744.449 108.104 744.449 106.456C744.449 104.792 744.241 103.328 743.825 102.064C743.425 100.8 742.873 99.824 742.169 99.136C741.481 98.448 740.713 98.104 739.865 98.104C738.985 98.104 738.209 98.464 737.537 99.184C736.865 99.888 736.345 100.88 735.977 102.16C735.625 103.44 735.449 104.904 735.449 106.552ZM756.064 102.256C757.296 102.256 758.272 102.528 758.992 103.072C759.712 103.6 760.072 104.344 760.072 105.304C760.072 105.96 759.88 106.568 759.496 107.128C759.128 107.688 758.688 108.184 758.176 108.616C757.664 109.048 756.96 109.584 756.064 110.224C754.912 111.024 754.104 111.664 753.64 112.144H758.824C759.256 112.144 759.576 112.112 759.784 112.048C760.008 111.984 760.16 111.88 760.24 111.736C760.32 111.592 760.384 111.368 760.432 111.064H760.936C760.936 112.952 760.968 114.304 761.032 115.12C760.68 115.04 759.488 115 757.456 115H750.472V114.544C750.68 114.32 751.088 113.936 751.696 113.392C752.624 112.544 753.392 111.792 754 111.136C754.624 110.464 755.16 109.696 755.608 108.832C756.072 107.952 756.304 107.04 756.304 106.096C756.304 105.248 756.112 104.632 755.728 104.248C755.36 103.848 754.808 103.648 754.072 103.648C753.4 103.648 752.8 103.808 752.272 104.128C751.76 104.432 751.288 104.888 750.856 105.496L750.448 105.256C751.632 103.256 753.504 102.256 756.064 102.256ZM773.806 102.256C775.038 102.256 776.014 102.528 776.734 103.072C777.454 103.6 777.814 104.344 777.814 105.304C777.814 105.96 777.622 106.568 777.238 107.128C776.87 107.688 776.43 108.184 775.918 108.616C775.406 109.048 774.702 109.584 773.806 110.224C772.654 111.024 771.846 111.664 771.382 112.144H776.566C776.998 112.144 777.318 112.112 777.526 112.048C777.75 111.984 777.902 111.88 777.982 111.736C778.062 111.592 778.126 111.368 778.174 111.064H778.678C778.678 112.952 778.71 114.304 778.774 115.12C778.422 115.04 777.23 115 775.198 115H768.214V114.544C768.422 114.32 768.83 113.936 769.438 113.392C770.366 112.544 771.134 111.792 771.742 111.136C772.366 110.464 772.902 109.696 773.35 108.832C773.814 107.952 774.046 107.04 774.046 106.096C774.046 105.248 773.854 104.632 773.47 104.248C773.102 103.848 772.55 103.648 771.814 103.648C771.142 103.648 770.542 103.808 770.014 104.128C769.502 104.432 769.03 104.888 768.598 105.496L768.19 105.256C769.374 103.256 771.246 102.256 773.806 102.256ZM787.641 102.256C788.905 102.256 790.033 102.52 791.025 103.048C792.017 103.576 792.785 104.32 793.329 105.28C793.889 106.24 794.169 107.344 794.169 108.592C794.169 109.872 793.881 111.024 793.305 112.048C792.745 113.072 791.945 113.88 790.905 114.472C789.881 115.048 788.705 115.336 787.377 115.336C786.129 115.336 785.009 115.072 784.017 114.544C783.025 114.016 782.249 113.272 781.689 112.312C781.129 111.352 780.849 110.24 780.849 108.976C780.849 107.712 781.129 106.568 781.689 105.544C782.265 104.52 783.065 103.72 784.089 103.144C785.113 102.552 786.297 102.256 787.641 102.256ZM787.425 102.688C786.849 102.688 786.337 102.936 785.889 103.432C785.441 103.928 785.089 104.648 784.833 105.592C784.593 106.52 784.473 107.624 784.473 108.904C784.473 110.936 784.761 112.448 785.337 113.44C785.929 114.416 786.681 114.904 787.593 114.904C788.169 114.904 788.673 114.656 789.105 114.16C789.553 113.648 789.905 112.928 790.161 112C790.417 111.056 790.545 109.944 790.545 108.664C790.545 106.632 790.249 105.128 789.657 104.152C789.081 103.176 788.337 102.688 787.425 102.688ZM801.837 102.256C803.069 102.256 804.045 102.528 804.765 103.072C805.485 103.6 805.845 104.344 805.845 105.304C805.845 105.96 805.653 106.568 805.269 107.128C804.901 107.688 804.461 108.184 803.949 108.616C803.437 109.048 802.733 109.584 801.837 110.224C800.685 111.024 799.877 111.664 799.413 112.144H804.597C805.029 112.144 805.349 112.112 805.557 112.048C805.781 111.984 805.933 111.88 806.013 111.736C806.093 111.592 806.157 111.368 806.205 111.064H806.709C806.709 112.952 806.741 114.304 806.805 115.12C806.453 115.04 805.261 115 803.229 115H796.245V114.544C796.453 114.32 796.861 113.936 797.469 113.392C798.397 112.544 799.165 111.792 799.773 111.136C800.397 110.464 800.933 109.696 801.381 108.832C801.845 107.952 802.077 107.04 802.077 106.096C802.077 105.248 801.885 104.632 801.501 104.248C801.133 103.848 800.581 103.648 799.845 103.648C799.173 103.648 798.573 103.808 798.045 104.128C797.533 104.432 797.061 104.888 796.629 105.496L796.221 105.256C797.405 103.256 799.277 102.256 801.837 102.256ZM815.672 102.256C816.936 102.256 818.064 102.52 819.056 103.048C820.048 103.576 820.816 104.32 821.36 105.28C821.92 106.24 822.2 107.344 822.2 108.592C822.2 109.872 821.912 111.024 821.336 112.048C820.776 113.072 819.976 113.88 818.936 114.472C817.912 115.048 816.736 115.336 815.408 115.336C814.16 115.336 813.04 115.072 812.048 114.544C811.056 114.016 810.28 113.272 809.72 112.312C809.16 111.352 808.88 110.24 808.88 108.976C808.88 107.712 809.16 106.568 809.72 105.544C810.296 104.52 811.096 103.72 812.12 103.144C813.144 102.552 814.328 102.256 815.672 102.256ZM815.456 102.688C814.88 102.688 814.368 102.936 813.92 103.432C813.472 103.928 813.12 104.648 812.864 105.592C812.624 106.52 812.504 107.624 812.504 108.904C812.504 110.936 812.792 112.448 813.368 113.44C813.96 114.416 814.712 114.904 815.624 114.904C816.2 114.904 816.704 114.656 817.136 114.16C817.584 113.648 817.936 112.928 818.192 112C818.448 111.056 818.576 109.944 818.576 108.664C818.576 106.632 818.28 105.128 817.688 104.152C817.112 103.176 816.368 102.688 815.456 102.688Z" fill="#233A75"/>

</svg>