<svg width="64" height="113" viewBox="0 0 64 113" fill="none" xmlns="http://www.w3.org/2000/svg">
<path d="M63.7338 32.0167C63.7338 14.3623 49.4986 0 32.0004 0C14.5023 0 0.26709 14.3623 0.26709 32.0167C0.26709 41.3298 4.34949 50.172 11.2972 56.2269C10.2538 57.2552 9.60042 58.6828 9.60042 60.2667C9.60042 61.7187 10.1623 63.0314 11.0564 64.0333C10.1604 65.0353 9.60042 66.3479 9.60042 67.8C9.60042 69.2521 10.1623 70.5647 11.0564 71.5667C10.1604 72.5686 9.60042 73.8813 9.60042 75.3333C9.60042 77.7854 11.1666 79.8571 13.3338 80.6368V94.1667C13.3338 94.6733 13.5391 95.146 13.8844 95.4944L13.8807 95.4982L30.6807 112.448C31.0447 112.815 31.5226 113 32.0004 113C32.4783 113 32.9562 112.815 33.3202 112.448L50.1202 95.4982L50.1164 95.4944C50.4618 95.146 50.6671 94.6733 50.6671 94.1667V80.6368C52.8343 79.8571 54.4004 77.7854 54.4004 75.3333C54.4004 73.8813 53.8386 72.5686 52.9444 71.5667C53.8404 70.5647 54.4004 69.2521 54.4004 67.8C54.4004 66.3479 53.8386 65.0353 52.9444 64.0333C53.8404 63.0314 54.4004 61.7187 54.4004 60.2667C54.4004 58.6828 53.7471 57.2552 52.7036 56.2269C59.6514 50.172 63.7338 41.3298 63.7338 32.0167ZM32.0004 108.454L29.0399 105.467H34.961L32.0004 108.454ZM38.6943 101.7H25.3066L18.1311 94.4586L20.8004 92.6638L25.3644 95.7336C25.9916 96.1555 26.8074 96.1555 27.4346 95.7336L32.0004 92.6638L36.5644 95.7336C37.1916 96.1555 38.0074 96.1555 38.6346 95.7336L43.2004 92.6638L45.8698 94.4605L38.6943 101.7ZM46.9338 90.6467L44.2364 88.8331C43.6092 88.4112 42.7935 88.4112 42.1663 88.8331L37.6004 91.9029L33.0364 88.8331C32.4092 88.4112 31.5935 88.4112 30.9663 88.8331L26.4004 91.9029L21.8364 88.8331C21.2092 88.4112 20.3935 88.4112 19.7663 88.8331L17.0671 90.6467V80.9833H46.9338V90.6467ZM48.8004 77.2167H15.2004C14.1719 77.2167 13.3338 76.371 13.3338 75.3333C13.3338 74.2956 14.1719 73.45 15.2004 73.45H48.8004C49.829 73.45 50.6671 74.2956 50.6671 75.3333C50.6671 76.371 49.829 77.2167 48.8004 77.2167ZM48.8004 69.6833H15.2004C14.1719 69.6833 13.3338 68.8377 13.3338 67.8C13.3338 66.7623 14.1719 65.9167 15.2004 65.9167H48.8004C49.829 65.9167 50.6671 66.7623 50.6671 67.8C50.6671 68.8377 49.829 69.6833 48.8004 69.6833ZM48.8004 62.15H15.2004C14.1719 62.15 13.3338 61.3044 13.3338 60.2667C13.3338 59.229 14.1719 58.3833 15.2004 58.3833H48.7929L48.8154 58.3871C49.8364 58.3946 50.6671 59.2327 50.6671 60.2667C50.6671 61.3044 49.829 62.15 48.8004 62.15ZM26.1615 33.6684C26.5031 33.9471 26.9194 34.0865 27.3338 34.0865C27.7482 34.0865 28.1644 33.9471 28.506 33.6684C30.7274 31.8604 32.0004 29.1973 32.0004 26.3667C32.0004 25.9316 31.9594 25.5022 31.9015 25.0766C31.8847 24.9542 31.8623 24.8355 31.8399 24.7131C31.782 24.3892 31.7074 24.069 31.614 23.7545C31.5842 23.649 31.558 23.5436 31.5244 23.44C31.3919 23.0388 31.237 22.6471 31.0522 22.2685C31.0186 22.2007 30.9775 22.1367 30.942 22.067C30.7796 21.7525 30.5967 21.4474 30.3988 21.1536C30.3652 21.1028 30.341 21.0462 30.3055 20.9954C31.3975 20.63 32.6071 20.63 33.6991 20.9954C33.6636 21.0462 33.6394 21.1028 33.6058 21.1536C33.4079 21.4493 33.2268 21.7525 33.0626 22.067C33.0271 22.1348 32.986 22.1989 32.9524 22.2685C32.7676 22.6471 32.6108 23.0407 32.4802 23.44C32.4466 23.5436 32.4204 23.649 32.3906 23.7545C32.2991 24.069 32.2244 24.3892 32.1647 24.7131C32.1423 24.8336 32.1199 24.9542 32.1031 25.0766C32.0415 25.5022 32.0004 25.9316 32.0004 26.3667C32.0004 29.1973 33.2735 31.8604 35.4948 33.6684C35.8364 33.9471 36.2527 34.0865 36.6671 34.0865C37.0815 34.0865 37.4977 33.9471 37.8394 33.6684C40.0607 31.8604 41.3338 29.1973 41.3338 26.3667C41.3338 25.9316 41.2927 25.5022 41.2348 25.0766C41.218 24.9542 41.1956 24.8355 41.1732 24.7131C41.1154 24.3892 41.0407 24.069 40.9474 23.7545C40.9175 23.649 40.8914 23.5436 40.8559 23.44C40.7234 23.0388 40.5684 22.6471 40.3836 22.2685C40.35 22.197 40.3071 22.1311 40.2698 22.0614C40.1092 21.7506 39.93 21.4512 39.7359 21.1592C39.7004 21.1046 39.6743 21.0463 39.637 20.9935C40.1839 20.8108 40.7514 20.7167 41.3338 20.7167C44.3167 20.7167 46.9338 23.5473 46.9338 26.7772C46.9338 29.5457 45.7242 32.1523 43.6148 33.9245L36.4058 39.9869C35.9802 40.3448 35.7338 40.874 35.7338 41.4333V54.6167H28.2671V41.4333C28.2671 40.874 28.0207 40.3448 27.5951 39.9869L20.386 33.9245C18.2767 32.1504 17.0671 29.5457 17.0671 26.7772C17.0671 23.5473 19.6842 20.7167 22.6671 20.7167C23.2476 20.7167 23.817 20.8108 24.362 20.9935C24.3247 21.0463 24.2986 21.1065 24.2631 21.1592C24.0671 21.4512 23.8898 21.7506 23.7292 22.0614C23.6938 22.1311 23.6508 22.197 23.6154 22.2685C23.4306 22.6471 23.2756 23.0388 23.1431 23.44C23.1095 23.5436 23.0834 23.6509 23.0516 23.7545C22.9602 24.069 22.8855 24.3892 22.8258 24.7131C22.8034 24.8336 22.781 24.9542 22.7642 25.0766C22.7082 25.5022 22.6671 25.9316 22.6671 26.3667C22.6671 29.1973 23.9402 31.8604 26.1615 33.6684ZM26.4004 26.3667C26.4004 25.9919 26.4527 25.6246 26.5255 25.263C26.5442 25.1764 26.5628 25.0879 26.5852 25.0031C26.6748 24.6509 26.7887 24.3044 26.9455 23.9748C26.9586 23.9503 26.9735 23.9259 26.9866 23.9014C27.0836 23.7074 27.2143 23.5304 27.3338 23.3477C27.4532 23.5304 27.5839 23.7074 27.681 23.9014C27.6922 23.9259 27.709 23.9485 27.722 23.9729C27.8788 24.3006 27.9927 24.6472 28.0823 25.0012C28.1047 25.0879 28.1234 25.1745 28.142 25.2612C28.2148 25.6246 28.2671 25.9919 28.2671 26.3667C28.2671 26.7414 28.2148 27.1087 28.142 27.4703C28.1234 27.5569 28.1047 27.6455 28.0823 27.7302C27.9927 28.0824 27.8788 28.4289 27.722 28.7585C27.7108 28.783 27.694 28.8075 27.681 28.8319C27.5839 29.0259 27.4532 29.203 27.3338 29.3856C27.2143 29.203 27.0836 29.0259 26.9866 28.8319C26.9735 28.8075 26.9567 28.783 26.9455 28.7585C26.7887 28.4289 26.6748 28.0824 26.5852 27.7302C26.5628 27.6436 26.5442 27.5569 26.5255 27.4703C26.4527 27.1087 26.4004 26.7414 26.4004 26.3667ZM35.7338 26.3667C35.7338 25.9919 35.786 25.6246 35.8588 25.263C35.8775 25.1764 35.8962 25.0879 35.9186 25.0031C36.0082 24.6509 36.122 24.3044 36.2788 23.9748C36.2919 23.9503 36.3068 23.9259 36.3199 23.9014C36.417 23.7074 36.5476 23.5304 36.6671 23.3477C36.7866 23.5304 36.9172 23.7074 37.0143 23.9014C37.0255 23.9259 37.0423 23.9485 37.0554 23.9729C37.2122 24.3006 37.326 24.6472 37.4156 25.0012C37.438 25.0879 37.4567 25.1745 37.4754 25.2612C37.5482 25.6246 37.6004 25.9919 37.6004 26.3667C37.6004 26.7414 37.5482 27.1087 37.4754 27.4703C37.4567 27.5569 37.438 27.6455 37.4156 27.7302C37.326 28.0824 37.2122 28.4289 37.0554 28.7585C37.0442 28.783 37.0274 28.8075 37.0143 28.8319C36.9172 29.0259 36.7866 29.203 36.6671 29.3856C36.5476 29.203 36.417 29.0259 36.3199 28.8319C36.3068 28.8075 36.29 28.783 36.2788 28.7585C36.122 28.4289 36.0082 28.0824 35.9186 27.7302C35.8962 27.6436 35.8775 27.5569 35.8588 27.4703C35.786 27.1087 35.7338 26.7414 35.7338 26.3667ZM48.7594 54.6167H39.4671V42.3147L46.0042 36.8173C48.9684 34.3275 50.6671 30.6663 50.6671 26.7772C50.6671 21.4512 46.3924 16.95 41.3338 16.95C39.6762 16.95 38.0876 17.4095 36.6615 18.2627C33.7887 16.5827 30.2159 16.5827 27.3412 18.2627C25.9132 17.4095 24.3247 16.95 22.6671 16.95C17.6084 16.95 13.3338 21.4512 13.3338 26.7772C13.3338 30.6663 15.0324 34.3275 17.9967 36.8192L24.5338 42.3147V54.6167H15.2415C8.19109 49.2831 4.00042 40.8872 4.00042 32.0167C4.00042 16.4396 16.5612 3.76667 32.0004 3.76667C47.4396 3.76667 60.0004 16.4396 60.0004 32.0167C60.0004 40.8872 55.8098 49.2831 48.7594 54.6167Z" fill="#072A54"/>
</svg>
